<svg xmlns="http://www.w3.org/2000/svg" width="24" height="24" viewBox="0 0 24 24" >
  <path d="M10.8686 9.13137L7.73137 12.2686C6.87462 13.1254 6.44624 13.5538 6.4173 13.9215C6.39218 14.2407 6.52136 14.5525 6.76477 14.7604C7.04529 15 7.65111 15 8.86274 15H15.1373C16.3489 15 16.9547 15 17.2352 14.7604C17.4786 14.5525 17.6078 14.2407 17.5827 13.9215C17.5538 13.5538 17.1254 13.1254 16.2686 12.2686L13.1314 9.13137C12.7354 8.73535 12.5373 8.53735 12.309 8.46316C12.1082 8.3979 11.8918 8.3979 11.691 8.46316C11.4627 8.53735 11.2646 8.73535 10.8686 9.13137Z" fill="white"/>
</svg>