<svg xmlns="http://www.w3.org/2000/svg" width="24" height="24" viewBox="0 0 24 24">
  <path fill-rule="evenodd" clip-rule="evenodd" d="M3.98005 1.79497C5.04961 1.25 6.44974 1.25 9.25 1.25H14.75C17.5503 1.25 18.9504 1.25 20.02 1.79497C20.9608 2.27433 21.7257 3.03924 22.205 3.98005C22.75 5.04961 22.75 6.44974 22.75 9.25V14.75C22.75 17.5503 22.75 18.9504 22.205 20.02C21.7257 20.9608 20.9608 21.7257 20.02 22.205C18.9504 22.75 17.5503 22.75 14.75 22.75H9.25C6.44974 22.75 5.04961 22.75 3.98005 22.205C3.03924 21.7257 2.27433 20.9608 1.79497 20.02C1.25 18.9504 1.25 17.5503 1.25 14.75V9.25C1.25 6.44974 1.25 5.04961 1.79497 3.98005C2.27433 3.03924 3.03924 2.27433 3.98005 1.79497ZM9.03034 6.53025C9.32323 6.23736 9.32322 5.76248 9.03032 5.46959C8.73743 5.1767 8.26255 5.17671 7.96966 5.46961L5.46966 7.96968C5.17678 8.26257 5.17678 8.73744 5.46967 9.03033L7.96967 11.5303C8.26256 11.8232 8.73744 11.8232 9.03033 11.5303C9.32322 11.2374 9.32322 10.7626 9.03033 10.4697L7.81066 9.25H14C14.4142 9.25 14.75 8.91421 14.75 8.5C14.75 8.08579 14.4142 7.75 14 7.75H7.81062L9.03034 6.53025ZM16.0303 12.4697C15.7374 12.1768 15.2626 12.1768 14.9697 12.4697C14.6768 12.7626 14.6768 13.2374 14.9697 13.5303L16.1893 14.75H10C9.58579 14.75 9.25 15.0858 9.25 15.5C9.25 15.9142 9.58579 16.25 10 16.25H16.1893L14.9697 17.4697C14.6768 17.7626 14.6768 18.2374 14.9697 18.5303C15.2626 18.8232 15.7374 18.8232 16.0303 18.5303L18.5303 16.0303C18.8232 15.7374 18.8232 15.2626 18.5303 14.9697L16.0303 12.4697Z" />
</svg>