<svg xmlns="http://www.w3.org/2000/svg" width="20" height="22" viewBox="0 0 20 22" fill="none">
  <path d="M17.614 9.01433C17.9324 6.88508 16.3114 5.74053 14.0947 4.977L14.8138 2.09274L13.058 1.65525L12.358 4.46357C11.8964 4.34845 11.4224 4.23998 10.9513 4.13244L11.6564 1.30559L9.90178 0.868103L9.18228 3.75142C8.80032 3.66446 8.42517 3.57851 8.06119 3.48794L8.06323 3.47887L5.64203 2.87426L5.17498 4.74949C5.17498 4.74949 6.47759 5.04809 6.45014 5.06646C7.16111 5.24391 7.28969 5.71456 7.26834 6.08761L6.4492 9.37345C6.49816 9.38589 6.56166 9.40388 6.63173 9.43203C6.57316 9.41748 6.51083 9.40161 6.44615 9.38612L5.298 13.9891C5.21111 14.2051 4.99057 14.5293 4.49349 14.4062C4.51109 14.4317 3.21739 14.0877 3.21739 14.0877L2.3457 16.0975L4.63051 16.6671C5.05556 16.7737 5.47209 16.8852 5.88228 16.9901L5.15574 19.9074L6.90945 20.3449L7.62895 17.4585C8.10804 17.5886 8.57298 17.7085 9.02814 17.8216L8.31106 20.6944L10.0669 21.1319L10.7933 18.22C13.7872 18.7866 16.0384 18.5582 16.986 15.8502C17.7495 13.67 16.948 12.4124 15.3729 11.5923C16.5201 11.3278 17.3842 10.5732 17.6146 9.01456L17.614 9.01417L17.614 9.01433ZM13.6025 14.6394C13.0599 16.8197 9.38906 15.6411 8.19891 15.3455L9.16304 11.4806C10.3531 11.7777 14.1696 12.3656 13.6026 14.6394H13.6025ZM14.1455 8.98273C13.6505 10.9659 10.5952 9.95836 9.60413 9.71131L10.4782 6.20601C11.4694 6.45307 14.6611 6.91417 14.1457 8.98273H14.1455Z" fill="white"/>
</svg>