<svg xmlns="http://www.w3.org/2000/svg" width="24" height="24" viewBox="0 0 24 24">
  <path fill-rule="evenodd" clip-rule="evenodd"
    d="M4.52606 1.90396C5.80953 1.25 7.48968 1.25 10.85 1.25L13.15 1.25C16.5103 1.25 18.1905 1.25 19.4739 1.90396C20.6029 2.4792 21.5208 3.39709 22.096 4.52606C22.75 5.80953 22.75 7.48969 22.75 10.85L22.75 13.15C22.75 16.5103 22.75 18.1905 22.096 19.4739C21.5208 20.6029 20.6029 21.5208 19.4739 22.096C18.1905 22.75 16.5103 22.75 13.15 22.75L10.85 22.75C7.48968 22.75 5.80953 22.75 4.52605 22.096C3.39708 21.5208 2.4792 20.6029 1.90396 19.4739C1.25 18.1905 1.25 16.5103 1.25 13.15L1.25 10.85C1.25 7.48969 1.25 5.80953 1.90396 4.52606C2.4792 3.39709 3.39708 2.4792 4.52606 1.90396ZM9 14.25C7.75736 14.25 6.75 13.2426 6.75 12C6.75 10.7574 7.75736 9.75 9 9.75C10.2426 9.75 11.25 10.7574 11.25 12C11.25 14.0711 12.9289 15.75 15 15.75C17.0711 15.75 18.75 14.0711 18.75 12C18.75 9.92893 17.0711 8.25 15 8.25C14.563 8.25 14.142 8.32505 13.7501 8.46358C13.3595 8.60161 13.1548 9.0301 13.2929 9.42064C13.4309 9.81118 13.8594 10.0159 14.2499 9.87784C14.4836 9.79526 14.7357 9.75 15 9.75C16.2426 9.75 17.25 10.7574 17.25 12C17.25 13.2426 16.2426 14.25 15 14.25C13.7574 14.25 12.75 13.2426 12.75 12C12.75 9.92893 11.0711 8.25 9 8.25C6.92893 8.25 5.25 9.92893 5.25 12C5.25 14.0711 6.92893 15.75 9 15.75C9.43695 15.75 9.858 15.675 10.2499 15.5364C10.6405 15.3984 10.8452 14.9699 10.7071 14.5794C10.5691 14.1888 10.1406 13.9841 9.75006 14.1222C9.51644 14.2047 9.26431 14.25 9 14.25Z" />
</svg>