<svg xmlns="http://www.w3.org/2000/svg" width="24" height="24" viewBox="0 0 24 24">
  <path d="M1.25 5.25C1.25 3.84987 1.25 3.1498 1.52248 2.61502C1.76217 2.14462 2.14462 1.76217 2.61502 1.52248C3.1498 1.25 3.84987 1.25 5.25 1.25H6.75C8.15013 1.25 8.8502 1.25 9.38498 1.52248C9.85538 1.76217 10.2378 2.14462 10.4775 2.61502C10.75 3.1498 10.75 3.84987 10.75 5.25V8.75C10.75 10.1501 10.75 10.8502 10.4775 11.385C10.2378 11.8554 9.85538 12.2378 9.38498 12.4775C8.8502 12.75 8.15013 12.75 6.75 12.75H5.25C3.84987 12.75 3.1498 12.75 2.61502 12.4775C2.14462 12.2378 1.76217 11.8554 1.52248 11.385C1.25 10.8502 1.25 10.1501 1.25 8.75V5.25Z"/>
  <path d="M5 15.25C3.83515 15.25 3.25272 15.25 2.79329 15.4403C2.18072 15.694 1.69404 16.1807 1.4403 16.7933C1.25 17.2527 1.25 17.8351 1.25 19C1.25 20.1649 1.25 20.7473 1.4403 21.2067C1.69404 21.8193 2.18072 22.306 2.79329 22.5597C3.25272 22.75 3.83515 22.75 5 22.75H7C8.16485 22.75 8.74728 22.75 9.20671 22.5597C9.81928 22.306 10.306 21.8193 10.5597 21.2067C10.75 20.7473 10.75 20.1649 10.75 19C10.75 17.8351 10.75 17.2527 10.5597 16.7933C10.306 16.1807 9.81928 15.694 9.20671 15.4403C8.74728 15.25 8.16485 15.25 7 15.25H5Z"/>
  <path d="M13.25 5C13.25 3.83515 13.25 3.25272 13.4403 2.79329C13.694 2.18072 14.1807 1.69404 14.7933 1.4403C15.2527 1.25 15.8351 1.25 17 1.25H19C20.1649 1.25 20.7473 1.25 21.2067 1.4403C21.8193 1.69404 22.306 2.18072 22.5597 2.79329C22.75 3.25272 22.75 3.83515 22.75 5C22.75 6.16485 22.75 6.74728 22.5597 7.20671C22.306 7.81928 21.8193 8.30596 21.2067 8.5597C20.7473 8.75 20.1649 8.75 19 8.75H17C15.8351 8.75 15.2527 8.75 14.7933 8.5597C14.1807 8.30596 13.694 7.81928 13.4403 7.20671C13.25 6.74728 13.25 6.16485 13.25 5Z"/>
  <path d="M17.25 11.25C15.8499 11.25 15.1498 11.25 14.615 11.5225C14.1446 11.7622 13.7622 12.1446 13.5225 12.615C13.25 13.1498 13.25 13.8499 13.25 15.25V18.75C13.25 20.1501 13.25 20.8502 13.5225 21.385C13.7622 21.8554 14.1446 22.2378 14.615 22.4775C15.1498 22.75 15.8499 22.75 17.25 22.75H18.75C20.1501 22.75 20.8502 22.75 21.385 22.4775C21.8554 22.2378 22.2378 21.8554 22.4775 21.385C22.75 20.8502 22.75 20.1501 22.75 18.75V15.25C22.75 13.8499 22.75 13.1498 22.4775 12.615C22.2378 12.1446 21.8554 11.7622 21.385 11.5225C20.8502 11.25 20.1501 11.25 18.75 11.25H17.25Z"/>
</svg>