<svg xmlns="http://www.w3.org/2000/svg" width="21" height="20" viewBox="0 0 21 20" fill="white">
  <path d="M13.787 19.0621H7.08526C5.90382 19.0621 4.80332 18.4306 4.21297 17.4147L0.861708 11.6478C0.271358 10.6311 0.271358 9.36886 0.861708 8.35224L4.21297 2.58528C4.80332 1.5694 5.90382 0.937893 7.08526 0.937893H13.7878C14.9692 0.937893 16.0697 1.5694 16.6601 2.58528L18.3205 5.44257C18.6673 6.03941 18.4616 6.80224 17.8608 7.1475C17.2601 7.49203 16.4923 7.28768 16.1447 6.69084L14.4843 3.83355C14.341 3.58714 14.0737 3.43369 13.787 3.43369H7.08526C6.79863 3.43369 6.5313 3.58714 6.38798 3.83355L3.03672 9.60051C2.8934 9.84692 2.8934 10.1538 3.03672 10.4002L6.38798 16.1672C6.5313 16.4136 6.79863 16.567 7.08526 16.567H13.7878C14.0744 16.567 14.3417 16.4136 14.4851 16.1672L17.416 11.1232H11.8014C11.1078 11.1232 10.5457 10.5647 10.5457 9.87569C10.5457 9.18664 11.1078 8.62816 11.8014 8.62816H19.0787C19.8027 8.62816 20.4034 9.21246 20.4183 9.93102C20.4309 10.5758 20.2668 11.2117 19.9423 11.7695L16.6616 17.4155C16.069 18.4306 14.9685 19.0621 13.787 19.0621Z" />
  <path d="M5.96903 12.0801C5.75294 12.0801 5.53313 12.0247 5.33338 11.9074C4.7356 11.5578 4.53585 10.7934 4.88783 10.1996L7.98884 4.96156C8.34082 4.36768 9.11014 4.16922 9.70791 4.51891C10.3057 4.86861 10.5054 5.63291 10.1535 6.2268L7.05245 11.4648C6.81854 11.8595 6.39972 12.0801 5.96903 12.0801Z" />
</svg>