<svg xmlns="http://www.w3.org/2000/svg" width="138" height="36" viewBox="0 0 138 36" fill="none">
  <g clip-path="url(#clip0_170_189)">
    <path d="M12.4383 12.0648V10.5081H16.9088V25.2C16.9088 27.6324 16.1313 29.4811 14.5763 30.7459C13.0214 32.0108 11.0776 32.5946 8.84237 32.5946C5.34367 32.5946 2.91403 31.3297 1.55342 28.8973L5.53805 26.5621C6.21835 27.827 7.48177 28.5081 9.03675 28.5081C10.1058 28.5081 10.9805 28.2162 11.6608 27.6324C12.2439 27.0486 12.5354 26.2703 12.5354 25.2V23.7405C11.4664 25.1027 9.91142 25.7838 8.06489 25.7838C5.92679 25.7838 4.08026 25.0054 2.62247 23.4486C1.16468 21.8919 0.484375 20.0432 0.484375 17.9027C0.484375 15.7621 1.16468 13.9135 2.62247 12.3567C4.08026 10.8 5.82961 10.0216 8.06489 10.0216C9.91142 10.0216 11.3692 10.7027 12.4383 12.0648ZM6.02398 20.4324C6.70428 21.1135 7.67614 21.4054 8.74518 21.4054C9.81423 21.4054 10.6889 21.1135 11.4664 20.4324C12.1467 19.7513 12.5354 18.973 12.5354 17.8054C12.5354 16.7351 12.1467 15.8594 11.4664 15.1784C10.7861 14.4973 9.81423 14.2054 8.74518 14.2054C7.67614 14.2054 6.80147 14.4973 6.02398 15.1784C5.34368 15.8594 4.95493 16.6378 4.95493 17.8054C4.95493 18.973 5.34368 19.8486 6.02398 20.4324Z" fill="#DED2FF"/>
    <path d="M24.9755 10.4108V13.1351C25.267 12.1621 25.8501 11.3838 26.7248 10.8973C27.5995 10.3135 28.5714 10.1189 29.6404 10.1189V15.373C28.4742 15.1784 27.4051 15.373 26.4333 15.9567C25.4614 16.5405 24.9755 17.5135 24.9755 18.8757V25.8811H20.3105V10.4108H24.9755Z" fill="#DED2FF"/>
    <path d="M42.5662 11.8703V10.4108H47.2311V25.8811H42.5662V24.4216C41.4971 25.6865 39.9422 26.2703 37.9984 26.2703C35.9575 26.2703 34.2082 25.4919 32.7504 23.9351C31.2926 22.3784 30.6123 20.4324 30.6123 18.0973C30.6123 15.7621 31.2926 13.9135 32.7504 12.3567C34.2082 10.8 35.9575 10.0216 37.9984 10.0216C39.9422 10.0216 41.4971 10.6054 42.5662 11.8703ZM35.1801 18.1946C35.1801 19.3621 35.4716 20.2378 36.1519 20.9189C36.8322 21.6 37.7069 21.8919 38.7759 21.8919C39.845 21.8919 40.7196 21.6 41.4 20.9189C42.0803 20.2378 42.3718 19.3621 42.3718 18.1946C42.3718 17.027 42.0803 16.1513 41.4 15.4703C40.7196 14.7892 39.845 14.4973 38.7759 14.4973C37.7069 14.4973 36.8322 14.7892 36.1519 15.4703C35.5688 16.1513 35.1801 17.027 35.1801 18.1946Z" fill="#DED2FF"/>
    <path d="M59.8655 10.0216C61.9064 10.0216 63.6557 10.8 65.1135 12.3567C66.5713 13.9135 67.2516 15.8594 67.2516 18.0973C67.2516 20.4324 66.5713 22.3784 65.1135 23.9351C63.6557 25.4919 61.9064 26.2703 59.8655 26.2703C57.8246 26.2703 56.3668 25.6865 55.2977 24.4216V32.1081H50.6328V10.4108H55.2977V11.8703C56.2696 10.6054 57.8246 10.0216 59.8655 10.0216ZM56.2696 20.9189C56.9499 21.6 57.8246 21.8919 58.8936 21.8919C59.9627 21.8919 60.8373 21.6 61.5176 20.9189C62.198 20.2378 62.5867 19.3621 62.5867 18.1946C62.5867 17.027 62.198 16.1513 61.5176 15.4703C60.8373 14.7892 59.9627 14.4973 58.8936 14.4973C57.8246 14.4973 56.9499 14.7892 56.2696 15.4703C55.5893 16.1513 55.2977 17.027 55.2977 18.1946C55.2006 19.3621 55.5893 20.2378 56.2696 20.9189Z" fill="#DED2FF"/>
    <path d="M78.9138 10.0217C80.566 10.0217 81.9266 10.6055 82.9956 11.6757C84.0647 12.8433 84.6478 14.4 84.6478 16.346V25.8811H80.08V17.0271C80.08 16.1514 79.7885 15.4703 79.3026 14.9838C78.8166 14.4973 78.1363 14.2055 77.3588 14.2055C76.4842 14.2055 75.7067 14.4973 75.2207 14.9838C74.7348 15.5676 74.4433 16.346 74.4433 17.319V25.7838H69.7783V4.28113H74.4433V11.9676C75.4151 10.6055 76.8729 10.0217 78.9138 10.0217Z" fill="#DED2FF"/>
    <path d="M92.5194 25.8811H87.8545V3.30811H92.5194V25.8811Z" fill="#DED2FF"/>
    <path d="M100.586 25.881H95.9209V10.4108H100.586V25.881Z" fill="#DED2FF"/>
    <path d="M113.026 10.0216C114.678 10.0216 116.038 10.6054 117.107 11.6757C118.177 12.8432 118.76 14.4 118.76 16.3459V25.8811H114.095V17.027C114.095 16.1513 113.803 15.4703 113.317 14.9838C112.831 14.4973 112.151 14.2054 111.373 14.2054C110.499 14.2054 109.721 14.4973 109.235 14.9838C108.749 15.5676 108.458 16.3459 108.458 17.3189V25.7838H103.793V10.4108H108.458V11.8703C109.527 10.6054 110.985 10.0216 113.026 10.0216Z" fill="#DED2FF"/>
    <path d="M133.143 11.8703V10.4108H137.808V32.1081H133.143V24.4216C132.074 25.6865 130.519 26.2703 128.576 26.2703C126.535 26.2703 124.785 25.4919 123.328 23.9351C121.87 22.3784 121.189 20.4324 121.189 18.0973C121.189 15.7621 121.87 13.9135 123.328 12.3567C124.785 10.8 126.535 10.0216 128.576 10.0216C130.616 10.0216 132.074 10.6054 133.143 11.8703ZM125.854 18.1946C125.854 19.3621 126.146 20.2378 126.826 20.9189C127.507 21.6 128.381 21.8919 129.45 21.8919C130.519 21.8919 131.394 21.6 132.074 20.9189C132.755 20.2378 133.046 19.3621 133.046 18.1946C133.046 17.027 132.755 16.1513 132.074 15.4703C131.394 14.7892 130.519 14.4973 129.45 14.4973C128.381 14.4973 127.507 14.7892 126.826 15.4703C126.146 16.1513 125.854 17.027 125.854 18.1946Z" fill="#DED2FF"/>
  </g>
  <defs>
    <clipPath id="clip0_170_189">
      <rect width="137.032" height="36" fill="white" transform="translate(0.386719)"/>
    </clipPath>
  </defs>
</svg>