<svg xmlns="http://www.w3.org/2000/svg" width="38" height="34" viewBox="0 0 38 34" fill="none">
  <g clip-path="url(#clip0_170_184)">
    <path d="M24.8408 33.8387H12.388C10.1927 33.8387 8.14777 32.6652 7.05082 30.7776L0.823694 20.0617C-0.273263 18.1727 -0.273263 15.8272 0.823694 13.9382L7.05082 3.22234C8.14777 1.33469 10.1927 0.161255 12.388 0.161255H24.8422C27.0375 0.161255 29.0824 1.33469 30.1793 3.22234L33.2646 8.5316C33.909 9.64061 33.5268 11.0581 32.4105 11.6996C31.2942 12.3398 29.8675 11.9601 29.2218 10.8511L26.1365 5.5418C25.8702 5.08394 25.3734 4.79881 24.8408 4.79881H12.388C11.8553 4.79881 11.3586 5.08394 11.0923 5.5418L4.86518 16.2577C4.59888 16.7155 4.59888 17.2858 4.86518 17.7436L11.0923 28.4595C11.3586 28.9174 11.8553 29.2025 12.388 29.2025H24.8422C25.3748 29.2025 25.8716 28.9174 26.1379 28.4595L31.584 19.0871H21.1512C19.8624 19.0871 18.8179 18.0493 18.8179 16.769C18.8179 15.4886 19.8624 14.4509 21.1512 14.4509H34.6734C36.0187 14.4509 37.135 15.5366 37.1626 16.8718C37.1861 18.0699 36.8811 19.2516 36.2781 20.2879L30.1821 30.779C29.081 32.6652 27.0361 33.8387 24.8408 33.8387Z" fill="#DED2FF"/>
    <path d="M10.3143 20.865C9.91279 20.865 9.50437 20.7622 9.1332 20.5442C8.02244 19.8945 7.65127 18.4743 8.3053 17.3708L14.0674 7.63779C14.7215 6.53427 16.151 6.16551 17.2617 6.81529C18.3725 7.46507 18.7436 8.88526 18.0896 9.98878L12.3275 19.7217C11.8928 20.4551 11.1146 20.865 10.3143 20.865Z" fill="url(#paint0_linear_170_184)"/>
  </g>
  <defs>
    <linearGradient id="paint0_linear_170_184" x1="18.4502" y1="6.64994" x2="8.10017" y2="21.0499" gradientUnits="userSpaceOnUse">
      <stop stop-color="#9747FF"/>
      <stop offset="1" stop-color="#782AED"/>
    </linearGradient>
    <clipPath id="clip0_170_184">
      <rect width="37.1613" height="33.6774" fill="white" transform="translate(0 0.161255)"/>
    </clipPath>
  </defs>
</svg>