<svg xmlns="http://www.w3.org/2000/svg" width="20" height="20" viewBox="0 0 20 20" fill="none">
  <path fill-rule="evenodd" clip-rule="evenodd" d="M12.0255 10.6887C11.9123 10.6972 11.3278 10.732 10.024 10.732C8.98697 10.732 8.25068 10.7009 7.99236 10.6887C3.9847 10.5124 0.993335 9.81474 0.993335 8.97945C0.993335 8.14417 3.9847 7.44747 7.99236 7.26835V9.99386C8.25445 10.0127 9.00488 10.057 10.0419 10.057C11.2864 10.057 11.9095 10.0052 12.0217 9.9948V7.27023C16.0209 7.44841 19.0057 8.14606 19.0057 8.97945C19.0057 9.81285 16.0218 10.5105 12.0217 10.6877L12.0255 10.6887ZM12.0255 6.98835V4.54944H17.6066V0.830261H2.41124V4.54944H7.99142V6.98741C3.45582 7.19576 0.0449219 8.0942 0.0449219 9.17083C0.0449219 10.2475 3.45582 11.145 7.99142 11.3543V19.1697H12.0245V11.3514C16.5498 11.1431 19.955 10.2456 19.955 9.16989C19.955 8.0942 16.5526 7.1967 12.0245 6.98741L12.0255 6.98835Z" fill="white"/>
</svg>