<svg xmlns="http://www.w3.org/2000/svg" width="24" height="24" viewBox="0 0 24 24" fill="none">
  <path fill-rule="evenodd" clip-rule="evenodd" d="M1.25 4.00003C1.25 2.48125 2.48122 1.25003 4 1.25003L10.9131 1.25001C11.9779 1.2498 12.6637 1.24966 13.3044 1.43265C13.8708 1.59439 14.4021 1.86004 14.8713 2.21607C15.4021 2.61886 15.8134 3.16757 16.4521 4.01949L17.3845 5.26274C17.7141 5.271 18.0141 5.28459 18.2883 5.30699C19.0017 5.36527 19.6053 5.48688 20.1565 5.76772C21.0502 6.22312 21.7769 6.94978 22.2323 7.84355C22.5131 8.39472 22.6347 8.99835 22.693 9.71173C22.7068 9.88099 22.7173 10.0601 22.7252 10.25H21C18.9289 10.25 17.25 11.9289 17.25 14C17.25 16.0711 18.9289 17.75 21 17.75H22.7252C22.7173 17.9399 22.7068 18.119 22.693 18.2883C22.6347 19.0017 22.5131 19.6053 22.2323 20.1565C21.7769 21.0502 21.0502 21.7769 20.1565 22.2323C19.6053 22.5131 19.0017 22.6347 18.2883 22.693C17.5906 22.75 16.7252 22.75 15.633 22.75H8.36698C7.27485 22.75 6.40935 22.75 5.71173 22.693C4.99834 22.6347 4.39472 22.5131 3.84355 22.2323C2.94978 21.7769 2.22312 21.0502 1.76772 20.1565C1.48688 19.6053 1.36527 19.0017 1.30699 18.2883C1.24999 17.5906 1.24999 16.7252 1.25 15.633V4.00003ZM10.8 2.75003C12.0168 2.75003 12.4787 2.75681 12.8925 2.87498C13.28 2.98564 13.6435 3.16741 13.9645 3.411C14.3073 3.67112 14.5899 4.03659 15.32 5.01003L15.5 5.25H3.99124C3.30492 5.24529 2.75 4.68746 2.75 4.00003C2.75 3.30967 3.30964 2.75003 4 2.75003H10.8Z" fill="white"/>
  <path d="M22.7496 16.25C22.75 16.0528 22.75 15.8473 22.75 15.633V12.3641C22.75 12.1509 22.75 11.9464 22.7496 11.75H21C19.7574 11.75 18.75 12.7574 18.75 14C18.75 15.2426 19.7574 16.25 21 16.25H22.7496Z" fill="white"/>
</svg>